<?xml version="1.0" encoding="UTF-8" standalone="no"?>
<svg xmlns="http://www.w3.org/2000/svg" width="64" height="64" viewBox="0 0 64 64" version="1">
  <metadata
     id="metadata18">
    <rdf:RDF>
      <cc:Work
         rdf:about="">
        <dc:format>image/svg+xml</dc:format>
        <dc:type
           rdf:resource="http://purl.org/dc/dcmitype/StillImage" />
        <dc:title></dc:title>
      </cc:Work>
    </rdf:RDF>
  </metadata>
  <defs
     id="defs16" />
  <path
     id="path6"
     d="m 32,3.1997251 c -16.644565,0 -30.1374256,13.4928599 -30.1374256,30.1374259 0,16.644565 13.4928606,30.137425 30.1374256,30.137425 16.644565,0 30.137426,-13.49286 30.137426,-30.137425 C 62.137426,16.692585 48.644565,3.1997251 32,3.1997251 Z m 0,6.6972057 c 12.945699,0 23.44022,10.4945212 23.44022,23.4402202 0,12.945698 -10.494521,23.44022 -23.44022,23.44022 -12.945699,0 -23.4402199,-10.494522 -23.4402199,-23.44022 C 8.5597801,20.391452 19.054301,9.8969308 32,9.8969308 Z M 32,26.639945 A 6.6972057,6.6972057 0 0 0 25.302794,33.337151 6.6972057,6.6972057 0 0 0 32,40.034356 6.6972057,6.6972057 0 0 0 38.697206,33.337151 6.6972057,6.6972057 0 0 0 32,26.639945 Z"
     style="opacity:0.2;stroke-width:1.67430139" />
  <path
     id="path8"
     d="m 32,1.5254237 c -16.644565,0 -30.1374256,13.4928603 -30.1374256,30.1374253 0,16.644566 13.4928606,30.137426 30.1374256,30.137426 16.644565,0 30.137426,-13.49286 30.137426,-30.137426 C 62.137426,15.018284 48.644565,1.5254237 32,1.5254237 Z m 0,6.6972057 c 12.945699,0 23.44022,10.4945216 23.44022,23.4402196 0,12.945699 -10.494521,23.44022 -23.44022,23.44022 -12.945699,0 -23.4402199,-10.494521 -23.4402199,-23.44022 C 8.5597801,18.717151 19.054301,8.2226294 32,8.2226294 Z M 32,24.965644 A 6.6972057,6.6972057 0 0 0 25.302794,31.662849 6.6972057,6.6972057 0 0 0 32,38.360055 6.6972057,6.6972057 0 0 0 38.697206,31.662849 6.6972057,6.6972057 0 0 0 32,24.965644 Z"
     style="fill:currentColor;stroke-width:1.67430139" />
</svg>
