<?xml version="1.0" encoding="UTF-8" standalone="no"?>
<svg xmlns="http://www.w3.org/2000/svg" width="64" height="64" viewBox="0 0 64 64" version="1">
  <metadata
     id="metadata18">
    <rdf:RDF>
      <cc:Work
         rdf:about="">
        <dc:format>image/svg+xml</dc:format>
        <dc:type
           rdf:resource="http://purl.org/dc/dcmitype/StillImage" />
        <dc:title></dc:title>
      </cc:Work>
    </rdf:RDF>
  </metadata>
  <defs
     id="defs16" />
  <path
     id="path6"
     d="M 26.375281,2.5347249 V 11.674752 C 14.812908,14.310169 6.6065517,24.58507 6.5941178,36.445291 c 0,14.046322 11.3866032,25.432925 25.4329242,25.432925 12.94112,-0.01526 23.807478,-9.745898 25.245286,-22.607045 0,0 0.187667,-2.82588 -2.638213,-2.82588 -2.825881,0 -3.052234,2.82588 -3.052234,2.82588 -1.404462,9.723855 -9.729507,16.94398 -19.555093,16.955284 -10.924854,0 -19.781163,-8.85631 -19.781163,-19.781164 0.0087,-8.740448 5.753492,-16.438147 14.129402,-18.936225 v 7.632703 L 37.678549,13.838247 Z"
     style="opacity:0.2;stroke-width:1.41294026" />
  <path
     id="path8"
     d="M 26.375281,1.1217846 V 10.261813 C 14.812908,12.896946 6.6065517,23.172131 6.5941178,35.03235 c 0,14.046322 11.3866032,25.432925 25.4329242,25.432925 12.94112,-0.01526 23.807478,-9.745896 25.245286,-22.607044 0,0 0.187667,-2.825881 -2.638213,-2.825881 -2.825881,0 -3.052234,2.825881 -3.052234,2.825881 -1.404462,9.723855 -9.729507,16.943979 -19.555093,16.955283 -10.924854,0 -19.781163,-8.85631 -19.781163,-19.781164 0.0087,-8.740448 5.753492,-16.438147 14.129402,-18.936225 v 7.632704 L 37.678549,12.425307 Z"
     style="fill:currentColor;stroke-width:1.41294026" />
</svg>
