<?xml version="1.0" encoding="UTF-8" standalone="no"?>
<svg xmlns="http://www.w3.org/2000/svg" width="64" height="64" viewBox="0 0 64 64" version="1">
  <metadata
     id="metadata18">
    <rdf:RDF>
      <cc:Work
         rdf:about="">
        <dc:format>image/svg+xml</dc:format>
        <dc:type
           rdf:resource="http://purl.org/dc/dcmitype/StillImage" />
        <dc:title></dc:title>
      </cc:Work>
    </rdf:RDF>
  </metadata>
  <defs
     id="defs16" />
  <path
     id="path6"
     d="M 32,3.2094884 A 30.127383,30.127383 0 0 0 1.8726166,33.336872 30.127383,30.127383 0 0 0 32,63.464255 30.127383,30.127383 0 0 0 62.127383,33.336872 30.127383,30.127383 0 0 0 32,3.2094884 Z m 0,6.6949741 A 23.432409,23.432409 0 0 1 55.432409,33.336872 23.432409,23.432409 0 0 1 32,56.769281 23.432409,23.432409 0 0 1 8.5675907,33.336872 23.432409,23.432409 0 0 1 32,9.9044625 Z m 0,10.0424615 c -1.854508,0 -3.347487,1.492979 -3.347487,3.347487 v 20.084922 c 0,1.854508 1.492979,3.347487 3.347487,3.347487 1.854508,0 3.347487,-1.492979 3.347487,-3.347487 V 23.294411 c 0,-1.854508 -1.492979,-3.347487 -3.347487,-3.347487 z"
     style="opacity:0.2;stroke-width:1.67374349" />
  <path
     id="path8"
     d="M 32,1.5357449 A 30.127383,30.127383 0 0 0 1.8726166,31.663128 30.127383,30.127383 0 0 0 32,61.790512 30.127383,30.127383 0 0 0 62.127383,31.663128 30.127383,30.127383 0 0 0 32,1.5357449 Z m 0,6.694974 A 23.432409,23.432409 0 0 1 55.432409,31.663128 23.432409,23.432409 0 0 1 32,55.095538 23.432409,23.432409 0 0 1 8.5675907,31.663128 23.432409,23.432409 0 0 1 32,8.2307189 Z M 32,18.27318 c -1.854508,0 -3.347487,1.492979 -3.347487,3.347487 v 20.084922 c 0,1.854508 1.492979,3.347487 3.347487,3.347487 1.854508,0 3.347487,-1.492979 3.347487,-3.347487 V 21.620667 C 35.347487,19.766159 33.854508,18.27318 32,18.27318 Z"
     style="fill:currentColor;stroke-width:1.67374349" />
</svg>
