<?xml version="1.0" encoding="UTF-8" standalone="no"?>
<svg xmlns="http://www.w3.org/2000/svg" width="64" height="64" viewBox="0 0 64 64" version="1">
  <metadata
     id="metadata18">
    <rdf:RDF>
      <cc:Work
         rdf:about="">
        <dc:format>image/svg+xml</dc:format>
        <dc:type
           rdf:resource="http://purl.org/dc/dcmitype/StillImage" />
        <dc:title></dc:title>
      </cc:Work>
    </rdf:RDF>
  </metadata>
  <defs
     id="defs16" />
  <path
     id="path6"
     d="M 61.984861,33.332913 A 29.984861,29.984861 0 0 0 32,3.3480521 29.984861,29.984861 0 0 0 2.0151393,33.332913 29.984861,29.984861 0 0 0 32,63.317774 29.984861,29.984861 0 0 0 61.984861,33.332913 Z m -6.663303,0 A 23.321558,23.321558 0 0 1 32,56.654471 23.321558,23.321558 0 0 1 8.6784417,33.332913 23.321558,23.321558 0 0 1 32,10.011354 23.321558,23.321558 0 0 1 55.321558,33.332913 Z m -9.994953,0 c 0,-1.845735 -1.485917,-3.331651 -3.331651,-3.331651 H 22.005046 c -1.845734,0 -3.331651,1.485916 -3.331651,3.331651 0,1.845735 1.485917,3.331651 3.331651,3.331651 h 19.989908 c 1.845734,0 3.331651,-1.485916 3.331651,-3.331651 z"
     style="opacity:0.2;stroke-width:1.66582561" />
  <path
     id="path8"
     d="M 61.984861,31.667087 A 29.984861,29.984861 0 0 0 32,1.6822265 29.984861,29.984861 0 0 0 2.0151393,31.667087 29.984861,29.984861 0 0 0 32,61.651948 29.984861,29.984861 0 0 0 61.984861,31.667087 Z m -6.663303,0 A 23.321558,23.321558 0 0 1 32,54.988646 23.321558,23.321558 0 0 1 8.6784417,31.667087 23.321558,23.321558 0 0 1 32,8.3455289 23.321558,23.321558 0 0 1 55.321558,31.667087 Z m -9.994953,0 c 0,-1.845735 -1.485917,-3.331651 -3.331651,-3.331651 H 22.005046 c -1.845734,0 -3.331651,1.485916 -3.331651,3.331651 0,1.845735 1.485917,3.331651 3.331651,3.331651 h 19.989908 c 1.845734,0 3.331651,-1.485916 3.331651,-3.331651 z"
     style="fill:currentColor;stroke-width:1.66582561" />
</svg>
